<svg xmlns="http://www.w3.org/2000/svg" version="1.1" xmlns:xlink="http://www.w3.org/1999/xlink" xmlns:svgjs="http://svgjs.dev/svgjs" viewBox="0 0 8.120496093749999 8.120496093749999"><g transform="matrix(1,0,0,1,1.7767080078124997,3.7022480468749994)"><rect width="8.120496093749999" height="8.120496093749999" x="-1.7767080078125002" y="-3.702248046875" fill="#ffffff"></rect><g transform="matrix(1,0,0,1,0,0)"><g clip-path="url(#SvgjsClipPath1002)"><path d=" M 0.06007087053571403 -3.0255400390625 L 4.5070092075892845 -3.0255400390625 C 5.147698716308929 -3.0255400390625 5.667080078125 -2.5061586772464284 5.667080078125 -1.8654691685267857 L 5.667080078125 2.581469168526785 C 5.667080078125 3.2221586772464286 5.147698716308929 3.7415400390625 4.5070092075892845 3.7415400390625 L 0.06007087053571403 3.7415400390625 C -0.5806186381839288 3.7415400390625 -1.1 3.2221586772464286 -1.1 2.581469168526785 L -1.1 -1.8654691685267857 C -1.1 -2.5061586772464284 -0.5806186381839288 -3.0255400390625 0.06007087053571403 -3.0255400390625 Z" fill="#225777" transform="matrix(1,0,0,1,0,0)" fill-rule="nonzero"></path></g></g><g transform="matrix(1,0,0,1,0,0)"><path d=" M 0.491 0.23799999999999993 Q 0.491 0.23799999999999993 0.47400000000000003 0.22799999999999998 Q 0.457 0.21799999999999997 0.429 0.2054999999999999 Q 0.401 0.19299999999999995 0.368 0.18299999999999994 Q 0.335 0.17299999999999993 0.303 0.17299999999999993 Q 0.278 0.17299999999999993 0.262 0.18099999999999994 Q 0.246 0.18899999999999995 0.246 0.20799999999999996 Q 0.246 0.22599999999999998 0.262 0.23699999999999993 Q 0.278 0.24799999999999994 0.3075 0.25699999999999995 Q 0.337 0.26599999999999996 0.378 0.27899999999999997 Q 0.444 0.299 0.492 0.32499999999999996 Q 0.54 0.351 0.5660000000000001 0.39149999999999996 Q 0.592 0.43199999999999994 0.592 0.499 Q 0.592 0.563 0.5690000000000001 0.6064999999999999 Q 0.546 0.6499999999999999 0.507 0.6759999999999999 Q 0.468 0.702 0.42 0.7135 Q 0.372 0.725 0.322 0.725 Q 0.271 0.725 0.2155 0.7145 Q 0.16 0.704 0.108 0.6855 Q 0.056 0.6669999999999999 0.013000000000000001 0.642 L 0.097 0.471 Q 0.097 0.471 0.117 0.483 Q 0.137 0.495 0.17 0.51 Q 0.203 0.5249999999999999 0.2435 0.5369999999999999 Q 0.28400000000000003 0.5489999999999999 0.325 0.5489999999999999 Q 0.357 0.5489999999999999 0.3695 0.5405 Q 0.382 0.532 0.382 0.518 Q 0.382 0.497 0.36 0.48549999999999993 Q 0.338 0.474 0.3025 0.46349999999999997 Q 0.267 0.45299999999999996 0.224 0.43899999999999995 Q 0.162 0.418 0.122 0.39149999999999996 Q 0.082 0.36499999999999994 0.063 0.32849999999999996 Q 0.044 0.292 0.044 0.23999999999999994 Q 0.044 0.16099999999999992 0.081 0.10799999999999998 Q 0.11800000000000001 0.05499999999999994 0.1785 0.02749999999999997 Q 0.23900000000000002 0 0.309 0 Q 0.361 0 0.40950000000000003 0.012499999999999956 Q 0.458 0.02499999999999991 0.5005000000000001 0.04299999999999993 Q 0.543 0.06099999999999994 0.5750000000000001 0.07699999999999996 L 0.491 0.23799999999999993 M 1.19400439453125 0.5459999999999999 L 1.19400439453125 0.716 L 0.68800439453125 0.716 L 0.68800439453125 0.006000000000000005 L 1.18500439453125 0.006000000000000005 L 1.18500439453125 0.17599999999999993 L 0.88300439453125 0.17599999999999993 L 0.88300439453125 0.27599999999999997 L 1.14100439453125 0.27599999999999997 L 1.14100439453125 0.43399999999999994 L 0.88300439453125 0.43399999999999994 L 0.88300439453125 0.5459999999999999 L 1.19400439453125 0.5459999999999999 M 1.2949892578125 0.716 L 1.2949892578125 0.006000000000000005 L 1.4899892578125 0.006000000000000005 L 1.4899892578125 0.5459999999999999 L 1.8119892578124999 0.5459999999999999 L 1.8119892578124999 0.716 L 1.2949892578125 0.716 M 1.89001123046875 0.716 L 1.89001123046875 0.006000000000000005 L 2.08501123046875 0.006000000000000005 L 2.08501123046875 0.5459999999999999 L 2.40701123046875 0.5459999999999999 L 2.40701123046875 0.716 L 1.89001123046875 0.716 M 2.7960610351562503 0.722 Q 2.71506103515625 0.722 2.64906103515625 0.6915 Q 2.58306103515625 0.6609999999999999 2.53556103515625 0.6094999999999999 Q 2.48806103515625 0.5579999999999999 2.46256103515625 0.49349999999999994 Q 2.43706103515625 0.42899999999999994 2.43706103515625 0.36 Q 2.43706103515625 0.289 2.46406103515625 0.22499999999999998 Q 2.49106103515625 0.16099999999999992 2.53956103515625 0.11049999999999993 Q 2.58806103515625 0.05999999999999994 2.65456103515625 0.030999999999999917 Q 2.72106103515625 0.0020000000000000018 2.80006103515625 0.0020000000000000018 Q 2.8810610351562502 0.0020000000000000018 2.94706103515625 0.03249999999999997 Q 3.01306103515625 0.06299999999999994 3.06006103515625 0.11499999999999999 Q 3.10706103515625 0.16699999999999993 3.1325610351562503 0.23149999999999998 Q 3.15806103515625 0.296 3.15806103515625 0.364 Q 3.15806103515625 0.43399999999999994 3.13156103515625 0.498 Q 3.10506103515625 0.5619999999999999 3.0565610351562498 0.6124999999999999 Q 3.00806103515625 0.6629999999999999 2.94206103515625 0.6925 Q 2.87606103515625 0.722 2.7960610351562503 0.722 M 2.6350610351562502 0.362 Q 2.6350610351562502 0.39799999999999996 2.64506103515625 0.43149999999999994 Q 2.6550610351562502 0.46499999999999997 2.67506103515625 0.49149999999999994 Q 2.6950610351562503 0.518 2.7255610351562503 0.5335 Q 2.7560610351562502 0.5489999999999999 2.79806103515625 0.5489999999999999 Q 2.84006103515625 0.5489999999999999 2.87106103515625 0.5329999999999999 Q 2.90206103515625 0.5169999999999999 2.92156103515625 0.48949999999999994 Q 2.94106103515625 0.46199999999999997 2.95056103515625 0.42849999999999994 Q 2.96006103515625 0.39499999999999996 2.96006103515625 0.36 Q 2.96006103515625 0.32399999999999995 2.95006103515625 0.291 Q 2.94006103515625 0.25799999999999995 2.92006103515625 0.23149999999999998 Q 2.90006103515625 0.20499999999999996 2.86906103515625 0.18999999999999995 Q 2.83806103515625 0.17499999999999993 2.79706103515625 0.17499999999999993 Q 2.75506103515625 0.17499999999999993 2.72456103515625 0.19099999999999995 Q 2.69406103515625 0.20699999999999996 2.67406103515625 0.23349999999999999 Q 2.65406103515625 0.25999999999999995 2.64456103515625 0.2935 Q 2.6350610351562502 0.32699999999999996 2.6350610351562502 0.362 M 3.56107568359375 0.722 Q 3.47607568359375 0.722 3.41507568359375 0.694 Q 3.35407568359375 0.6659999999999999 3.31557568359375 0.617 Q 3.27707568359375 0.568 3.2590756835937498 0.5045 Q 3.24107568359375 0.44099999999999995 3.24107568359375 0.37099999999999994 L 3.24107568359375 0.006000000000000005 L 3.43607568359375 0.006000000000000005 L 3.43607568359375 0.37099999999999994 Q 3.43607568359375 0.40599999999999997 3.44307568359375 0.43799999999999994 Q 3.4500756835937496 0.47 3.4650756835937497 0.495 Q 3.48007568359375 0.52 3.5035756835937497 0.5345 Q 3.52707568359375 0.5489999999999999 3.56107568359375 0.5489999999999999 Q 3.59607568359375 0.5489999999999999 3.62007568359375 0.5345 Q 3.64407568359375 0.52 3.65857568359375 0.49449999999999994 Q 3.67307568359375 0.469 3.68007568359375 0.43699999999999994 Q 3.6870756835937497 0.40499999999999997 3.6870756835937497 0.37099999999999994 L 3.6870756835937497 0.006000000000000005 L 3.88207568359375 0.006000000000000005 L 3.88207568359375 0.37099999999999994 Q 3.88207568359375 0.44499999999999995 3.8625756835937497 0.5089999999999999 Q 3.84307568359375 0.573 3.8040756835937497 0.621 Q 3.76507568359375 0.6689999999999999 3.70457568359375 0.6955 Q 3.64407568359375 0.722 3.56107568359375 0.722 M 4.5570566406249995 0.17599999999999993 L 4.353056640625 0.17599999999999993 L 4.353056640625 0.716 L 4.1580566406249995 0.716 L 4.1580566406249995 0.17599999999999993 L 3.9530566406249994 0.17599999999999993 L 3.9530566406249994 0.006000000000000005 L 4.5570566406249995 0.006000000000000005 L 4.5570566406249995 0.17599999999999993" fill="#ffffff" fill-rule="nonzero"></path></g><g transform="matrix(1,0,0,1,0,0)"></g></g><defs><clipPath id="SvgjsClipPath1002"><path d=" M -1.1 -3.0255400390625 h 6.767080078125 v 6.767080078125 h -6.767080078125 Z"></path></clipPath></defs></svg>